<?xml version="1.0" standalone="no"?><!DOCTYPE svg PUBLIC "-//W3C//DTD SVG 1.1//EN" "http://www.w3.org/Graphics/SVG/1.1/DTD/svg11.dtd"><svg t="1704980009119" class="icon" viewBox="0 0 1024 1024" version="1.1" xmlns="http://www.w3.org/2000/svg" p-id="1080" data-spm-anchor-id="a313x.collections_detail.0.i1.34e03a81Jdwvmo" xmlns:xlink="http://www.w3.org/1999/xlink" width="200" height="200"><path d="M650.9 693.86v267.17H373.11V693.86c0-3.79 0.41-7.49 1.2-11.06H112v223.7c0.01 52.12 43.96 94.52 97.96 94.52H814.06c54.01 0 97.95-42.41 97.95-94.53V682.8H649.7c0.78 3.57 1.2 7.27 1.2 11.06z" fill="#FCE9B5" p-id="1081" data-spm-anchor-id="a313x.collections_detail.0.i0.34e03a81Jdwvmo"></path><path d="M112 682.8h262.31c5.45-24.78 28.82-43.47 56.75-43.47h161.89c27.93 0 51.3 18.69 56.75 43.47H912V411.31l-65.07-70.61H177.08L112 411.31V682.8z" fill="#FEF5DB" p-id="1082"></path><path d="M581.83 53.03l-0.89-0.9C562.48 34.47 537.99 24.75 512 24.75s-50.48 9.72-68.94 27.37L177.08 340.71h669.86L581.83 53.03z" fill="#FFFBF2" p-id="1083"></path><path d="M581.83 53.03l-0.89-0.9C562.48 34.47 537.99 24.75 512 24.75s-50.48 9.72-68.94 27.37L112 411.31V906.5c0.01 52.12 43.96 94.52 97.96 94.52H814.06c54.01 0 97.95-42.41 97.95-94.53V411.31L581.83 53.03z m-208.72 908V693.86c0-30.07 26-54.53 57.95-54.53h161.89c31.95 0 57.95 24.46 57.95 54.53v267.17H373.11zM872 906.5c0 30.07-26 54.53-57.95 54.53H690.9V693.86c0-52.12-43.94-94.53-97.95-94.53H431.06c-54.01 0-97.95 42.41-97.95 94.53v267.17H209.96c-31.95 0-57.95-24.46-57.96-54.53V426.93l319.13-346.3c22.66-21.23 59.08-21.23 81.74 0L872 426.93V906.5z" fill="#333333" p-id="1084"></path></svg>